PathFileType	4	(X/Y/Z)	D:\TRACE\v60_Jaco2_6-2-23\JustBodyDRS_Motion1_3-v60.trc
DataRate	CameraRate	NumFrames	NumMarkers	Units	OrigDataRate	OrigDataStartFrame	OrigNumFrames
100.00	100.00	      31	9	mm	100.00	2585	      6892
Frame#	Time	front left toe			Front right toe			aft left toe			aft right toe			Arm			FL body			FR body			AL Body			AR Body			
		X1	Y1	Z1	X2	Y2	Z2	X3	Y3	Z3	X4	Y4	Z4	X5	Y5	Z5	X6	Y6	Z6	X7	Y7	Z7	X8	Y8	Z8	X9	Y9	Z9	

2585	25.840	-115.89478	21.66073	-259.48050	276.91110	53.79932	-344.22977	-26.49719	34.02628	320.09201	294.47159	11.03572	340.37659	-29.67523	1218.99414	-402.38388	-10.11086	587.08606	-421.35114	148.48032	585.70984	-435.82507	71.28553	551.32159	520.32788	228.96614	544.13776	507.63782	
2586	25.850	-116.55956	21.56368	-259.46490	276.41623	46.55472	-346.19986	-25.33551	25.97282	318.96194	293.89740	11.26621	340.03647	-30.58502	1218.84766	-404.82236	-11.52768	587.08167	-423.07361	147.54306	585.67572	-437.92410	73.13058	550.92529	518.53931	230.53267	544.42285	505.65396	
2587	25.860	-117.43403	21.10771	-259.34836	276.69858	40.54149	-348.42767	-23.78243	19.65822	317.79596	293.17136	11.23929	339.70160	-33.46025	1218.14966	-406.01981	-13.29631	586.70752	-425.17551	146.49266	585.77203	-440.68152	75.13581	550.62433	516.27869	232.77234	544.59576	503.52478	
2588	25.870	-117.93436	20.91745	-259.41302	276.47525	34.43302	-350.76849	-22.72152	13.66880	316.11243	292.79587	11.24206	339.43674	-34.80481	1218.30737	-408.02289	-14.56548	586.56970	-427.11697	144.76402	585.74371	-442.64395	76.89384	550.36304	514.32910	235.67502	544.23071	500.68698	
2589	25.880	-118.70200	20.38681	-259.62613	276.35229	28.35191	-353.66116	-23.55971	12.64942	314.00259	292.00525	11.31223	338.93979	-36.32252	1218.29065	-409.76572	-15.97811	586.39172	-429.09744	143.88171	585.76471	-445.56354	78.53857	550.07928	511.80057	236.55666	544.15863	497.95221	
2590	25.890	-119.46809	20.23728	-259.46356	275.19330	23.69137	-356.62598	-25.14193	11.90667	313.81680	291.38116	11.53735	338.63608	-38.85255	1218.41589	-410.95291	-16.92848	586.09332	-430.83435	141.01222	585.30328	-448.53510	80.74953	551.19232	509.28433	238.80894	544.78156	494.92032	
2591	25.900	-120.35320	20.24376	-259.59747	275.10129	21.05728	-356.64758	-26.00259	13.01257	314.86270	290.38565	11.80073	338.20398	-41.13248	1218.11523	-413.13699	-18.24102	585.54333	-432.72482	140.76149	585.09998	-450.87546	83.13339	552.51410	507.11707	240.64891	546.23401	492.15955	
2592	25.910	-120.85666	20.13348	-259.89438	274.01447	20.22399	-358.61505	-26.06856	13.54623	314.80884	289.92014	12.10867	337.61322	-43.00553	1218.42737	-416.14377	-20.43390	585.90015	-434.80594	139.13766	585.86530	-453.15054	85.11747	553.37927	505.16531	241.42285	546.66553	487.88467	
2593	25.920	-120.46467	22.39524	-260.94742	274.22778	19.38095	-357.70459	-26.27369	13.23099	314.19299	289.73904	14.50265	336.72095	-44.51540	1218.92517	-419.87350	-21.90988	586.58392	-436.03207	137.54227	587.12769	-455.34113	87.08948	554.38507	503.24884	245.97256	548.46356	485.95810	
2594	25.930	-115.11467	25.70367	-259.50568	273.42596	19.30394	-358.99127	-27.08371	13.37778	313.97131	287.88928	17.70518	339.26184	-46.23302	1219.48914	-422.82779	-23.50693	587.72955	-437.24860	135.87886	587.79919	-457.20288	89.44711	555.38818	501.52249	247.19273	549.45331	485.17276	
2595	25.940	-110.73936	29.55540	-256.42136	272.03787	19.16067	-359.23749	-27.79929	13.83392	314.03455	285.14539	22.58467	341.95078	-48.86891	1219.81421	-424.51721	-25.00127	588.48041	-438.58273	133.81766	588.29712	-458.71716	91.49479	556.04468	499.70712	249.26131	550.22998	482.84912	
2596	25.950	-109.33451	38.23971	-256.02844	271.19431	18.91268	-359.50204	-28.54851	14.09876	314.01334	281.07547	31.66158	341.33960	-51.82438	1219.69751	-424.80469	-26.59578	588.17401	-440.10587	132.71634	588.82068	-460.92233	93.12053	556.67761	498.09653	251.00316	551.44250	480.98221	
2597	25.960	-109.88370	46.91865	-256.49063	270.19409	18.43839	-359.96402	-29.32990	14.00565	313.81360	280.64563	42.41898	339.51498	-54.64413	1220.00745	-424.47278	-28.11223	587.76904	-440.99155	130.80557	588.54816	-462.20529	94.31083	557.34503	496.75790	253.93343	552.36224	477.54306	
2598	25.970	-112.10631	57.86146	-258.64227	269.33838	17.76461	-360.19110	-29.74618	14.43920	314.06628	283.45053	53.20076	335.43317	-57.09320	1219.72913	-424.16339	-29.41261	587.11420	-442.17166	129.43843	587.89069	-463.48608	95.34268	557.74591	495.58783	254.81541	552.82184	475.99127	
2599	25.980	-114.32236	69.17889	-260.97754	268.70850	17.69003	-360.00070	-30.77618	14.54071	314.06418	289.68387	65.00185	330.04712	-59.55592	1219.60120	-425.12500	-30.51303	587.07190	-442.84695	128.15123	587.74512	-464.63535	95.90301	557.74768	494.27051	252.41765	551.97369	473.04407	
2600	25.990	-117.07947	80.78394	-263.73129	267.46170	17.35526	-360.40326	-31.96700	14.75446	313.97543	295.70801	76.30754	324.18161	-60.91515	1218.65247	-426.73407	-31.94008	586.73663	-443.67529	126.82182	587.53857	-465.54065	96.11852	557.23047	493.36243	252.81807	551.57605	472.06232	
2601	26.000	-119.89198	92.28000	-266.61975	266.75568	17.13838	-360.53552	-32.47599	14.64634	313.95465	301.02505	87.34266	318.18716	-61.90710	1217.29736	-427.86914	-33.13237	586.47504	-444.05191	125.46890	588.02179	-467.35852	96.58990	556.42499	492.56009	252.82378	551.03668	471.51035	
2602	26.010	-122.67426	103.67039	-269.70313	265.80988	16.80472	-360.65863	-33.51970	14.80823	313.95862	305.58218	98.27140	311.30847	-62.70613	1216.27625	-428.57346	-35.00935	586.12097	-444.63364	124.27888	587.45984	-467.63190	97.16970	556.06006	491.90338	253.13678	551.17474	469.58716	
2603	26.020	-124.75856	114.38567	-272.52646	264.76617	16.39988	-360.98557	-34.50906	15.07847	313.95010	309.18698	109.01254	304.51724	-63.79078	1216.24622	-429.36777	-36.12924	585.47388	-444.88434	122.99043	587.08130	-468.74771	97.54679	556.25830	491.16705	253.40048	551.09363	468.84427	
2604	26.030	-126.58154	124.29226	-274.99228	264.08163	16.32658	-361.05426	-35.05174	15.21971	313.86749	310.59229	118.58936	298.32407	-65.48411	1216.58655	-429.38162	-37.40096	584.86969	-445.27487	121.22794	586.24054	-468.97415	97.70286	556.47333	490.77875	252.98978	550.87122	468.57404	
2605	26.040	-128.46219	133.30487	-276.84854	262.98132	16.11605	-361.28571	-36.08504	15.50222	313.78104	313.80118	129.71700	293.26184	-67.22464	1216.55603	-429.60471	-38.89608	584.33557	-445.56973	120.04475	585.78259	-469.39105	97.62962	556.90063	490.45947	253.69496	551.37329	467.58206	
2606	26.050	-131.06427	140.97769	-278.56253	262.02679	15.83678	-361.30557	-37.14386	15.64436	313.95279	315.64322	138.11829	289.08075	-68.96260	1215.97424	-429.62900	-40.02858	583.66956	-445.76770	119.00668	584.96582	-469.59625	97.10616	557.04749	489.99609	253.01062	551.20032	467.32126	
2607	26.060	-133.59924	147.13753	-279.92950	261.00177	15.58858	-361.36356	-37.90140	15.95048	313.89172	317.10046	143.41409	285.46005	-70.67540	1214.84778	-430.56372	-41.12868	583.22418	-445.74109	117.52797	584.66248	-469.98553	97.08743	557.29803	490.08197	252.89186	551.48383	467.00452	
2608	26.070	-136.05399	151.16316	-281.09869	259.68762	15.15817	-361.62698	-38.78069	16.04384	313.78024	319.22086	146.87622	281.95834	-71.66820	1213.68494	-431.35764	-42.49287	582.78040	-445.86917	116.57558	584.10590	-469.80069	96.80556	557.42725	489.93216	252.58722	551.63879	466.76337	
2609	26.080	-137.84633	152.33537	-282.24423	259.23663	15.09834	-361.49881	-39.94593	16.29688	313.54498	320.35880	147.46150	278.71954	-72.49364	1212.95313	-432.43753	-43.52486	582.59290	-445.84045	114.39919	583.20660	-468.91870	96.02700	557.53589	489.96271	256.12396	554.02429	469.53082	
2610	26.090	-139.50703	150.98770	-282.98367	258.05167	14.91261	-361.47247	-40.60071	16.24015	313.45166	322.90518	146.31247	275.95798	-73.18849	1212.77112	-433.01569	-44.51020	582.27551	-445.78204	114.06600	583.15948	-469.57788	95.38401	557.46436	489.87402	250.51180	551.54901	466.80457	
2611	26.100	-140.37473	147.73230	-283.89917	256.90582	14.69336	-361.65802	-41.61042	16.32779	313.49921	324.12585	143.89461	273.48349	-73.60561	1212.88562	-433.27148	-45.33462	581.84418	-445.74039	113.72291	583.15051	-470.01285	94.84462	557.69263	489.96710	250.21960	551.97870	467.17975	
2612	26.110	-140.73091	143.36064	-285.24118	255.01941	14.00847	-361.82480	-42.73337	16.48756	313.78409	324.53546	140.11722	271.20276	-74.32072	1212.92834	-433.14926	-46.00697	581.63831	-445.75302	112.04053	582.40485	-469.63110	93.18890	557.88031	489.68771	249.04382	552.09821	466.88452	
2613	26.120	-141.22920	138.34993	-287.18512	253.96928	13.79738	-361.89383	-43.68761	16.64585	313.82761	325.33749	135.84785	269.39471	-75.08910	1212.95789	-432.78137	-47.07907	581.42487	-445.94769	111.37817	582.30347	-469.63266	92.00204	558.04675	489.64572	247.61305	552.15173	466.91684	
2614	26.130	-141.38100	132.79959	-289.25485	254.23528	13.99339	-361.81595	-44.82344	16.75002	313.60843	324.67236	130.54720	267.76703	-75.58612	1213.08069	-432.78775	-47.86812	581.23010	-445.98349	110.80875	582.18427	-469.64294	90.48972	558.01123	489.56076	247.06781	552.34033	466.70627	
2615	26.140	-141.78481	127.14529	-292.13620	252.10930	13.23713	-361.81909	-45.81435	16.83955	313.52286	325.26547	124.80819	266.12747	-76.33401	1212.90771	-432.86420	-48.55476	581.13361	-446.02478	110.66231	582.34644	-470.04675	89.66690	557.96863	489.91757	245.81381	552.29572	466.90619	
